<?xml version="1.0" encoding="utf-8"?> <!-- Generator: IcoMoon.io --> <!DOCTYPE svg PUBLIC "-//W3C//DTD SVG 1.1//EN" "http://www.w3.org/Graphics/SVG/1.1/DTD/svg11.dtd"> <svg width="512" height="512" viewBox="0 0 512 512" xmlns="http://www.w3.org/2000/svg" xmlns:xlink="http://www.w3.org/1999/xlink" fill="#ffffff"><path d="M 256.00,192.00C 202.976,192.00, 160.00,234.976, 160.00,288.00s 42.976,96.00, 96.00,96.00s 96.00-42.976, 96.00-96.00S 309.024,192.00, 256.00,192.00z M 256.00,320.00 c-17.696,0.00-32.00-14.304-32.00-32.00s 14.304-32.00, 32.00-32.00s 32.00,14.304, 32.00,32.00S 273.696,320.00, 256.00,320.00z M 448.00,64.00l-64.00,0.00 c0.00-35.328-28.672-64.00-64.00-64.00L 192.00,0.00 C 156.672,0.00, 128.00,28.672, 128.00,64.00L 64.00,64.00 C 28.672,64.00,0.00,92.672,0.00,128.00l0.00,320.00 c0.00,35.328, 28.672,64.00, 64.00,64.00l 384.00,0.00 c 35.328,0.00, 64.00-28.672, 64.00-64.00L 512.00,128.00 C 512.00,92.672, 483.328,64.00, 448.00,64.00z M 448.00,416.00c0.00,17.696-14.304,32.00-32.00,32.00L 96.00,448.00 c-17.696,0.00-32.00-14.304-32.00-32.00L 64.00,160.00 c0.00-17.696, 14.304-32.00, 32.00-32.00l 96.00,0.00 L 192.00,96.00 c0.00-17.696, 14.304-32.00, 32.00-32.00l 64.00,0.00 c 17.696,0.00, 32.00,14.304, 32.00,32.00l0.00,32.00 l 96.00,0.00 c 17.696,0.00, 32.00,14.304, 32.00,32.00L 448.00,416.00 z" ></path></svg>