<?xml version="1.0" encoding="utf-8"?> <!-- Generator: IcoMoon.io --> <!DOCTYPE svg PUBLIC "-//W3C//DTD SVG 1.1//EN" "http://www.w3.org/Graphics/SVG/1.1/DTD/svg11.dtd"> <svg width="512" height="512" viewBox="0 0 512 512" xmlns="http://www.w3.org/2000/svg" xmlns:xlink="http://www.w3.org/1999/xlink" fill="#bebebe"><path d="M 176.00,224.00C 202.528,224.00, 224.00,202.496, 224.00,176.00S 202.528,128.00, 176.00,128.00S 128.00,149.504, 128.00,176.00S 149.472,224.00, 176.00,224.00z M 448.00,0.00 L 64.00,0.00 C 28.672,0.00,0.00,28.672,0.00,64.00l0.00,384.00 c0.00,35.328, 28.672,64.00, 64.00,64.00l 384.00,0.00 c 35.328,0.00, 64.00-28.672, 64.00-64.00L 512.00,64.00 C 512.00,28.672, 483.328,0.00, 448.00,0.00z M 448.00,416.00c0.00,17.696-14.304,32.00-32.00,32.00L 96.00,448.00 c-17.664,0.00-32.00-14.304-32.00-32.00L 64.00,96.00 c0.00-17.696, 14.336-32.00, 32.00-32.00l 320.00,0.00 c 17.696,0.00, 32.00,14.304, 32.00,32.00L 448.00,416.00 z M 224.00,352.00L 192.00,288.00l-64.00,96.00l 256.00,0.00 l-64.00-192.00L 224.00,352.00z" ></path></svg>