<?xml version="1.0" encoding="utf-8"?> <!-- Generator: IcoMoon.io --> <!DOCTYPE svg PUBLIC "-//W3C//DTD SVG 1.1//EN" "http://www.w3.org/Graphics/SVG/1.1/DTD/svg11.dtd"> <svg width="512" height="512" viewBox="0 0 512 512" xmlns="http://www.w3.org/2000/svg" xmlns:xlink="http://www.w3.org/1999/xlink" fill="#ffffff"><path d="M 255.584,0.00 L 256.416,0.00 C 256.256,0.032 256.128,0.064 256.00,0.064 C 255.872,0.064 255.744,0.032 255.584,0.00 Z M 493.568,218.688 C 518.24,243.36 518.24,283.424 493.568,308.128 L 481.696,320.00 L 448.00,320.00 L 448.00,448.00 C 448.00,483.328 419.328,512.00 384.00,512.00 L 128.00,512.00 C 92.672,512.00 64.00,483.328 64.00,448.00 L 64.00,320.00 L 30.304,320.00 L 18.432,308.128 C -6.24,283.424 -6.24,243.36 18.432,218.688 L 219.68,17.472 C 229.888,7.264 242.72,1.728 256.00,0.064 C 269.28,1.728 282.112,7.264 292.32,17.472 L 493.568,218.688 Z M 384.00,256.00 L 434.304,256.00 C 432.96,250.56 430.72,245.312 426.496,241.024 L 269.984,84.512 C 265.984,80.512 261.088,78.304 256.00,76.896 C 250.912,78.304 246.016,80.544 242.048,84.512 L 85.536,241.024 C 81.28,245.312 79.04,250.56 77.696,256.00 L 128.00,256.00 L 128.00,416.00 C 128.00,433.696 142.304,448.00 160.00,448.00 L 192.00,448.00 L 192.00,288.00 L 320.00,288.00 L 320.00,448.00 L 352.00,448.00 C 369.696,448.00 384.00,433.696 384.00,416.00 L 384.00,256.00 Z" ></path></svg>