<?xml version="1.0" encoding="utf-8"?> <!-- Generator: IcoMoon.io --> <!DOCTYPE svg PUBLIC "-//W3C//DTD SVG 1.1//EN" "http://www.w3.org/Graphics/SVG/1.1/DTD/svg11.dtd"> <svg width="512" height="512" viewBox="0 0 512 512" xmlns="http://www.w3.org/2000/svg" xmlns:xlink="http://www.w3.org/1999/xlink" fill="#ffffff"><path d="M 379.84,161.184C 366.016,105.472, 316.00,64.00, 256.00,64.00C 208.128,64.00, 166.88,90.592, 144.928,129.536 C 63.744,137.216,0.00,204.80,0.00,288.00c0.00,69.312, 44.352,127.776, 105.984,150.016L 144.00,448.00L 384.00,448.00 l0.00-1.632 c 71.904-8.032, 128.00-68.32, 128.00-142.368 C 512.00,228.544, 453.76,167.328, 379.84,161.184z M 384.00,382.368L 384.00,384.00 L 160.00,384.00 c-53.024,0.00-96.00-42.976-96.00-96.00s 42.976-96.00, 96.00-96.00c 11.296,0.00, 21.952,2.304, 32.00,5.888L 192.00,192.00 c0.00-28.032, 13.152-43.392, 27.456-52.288c-0.032,0.00-0.096-0.032-0.128-0.064c 0.32-0.224, 0.704-0.32, 1.056-0.544 c 3.392-2.016, 6.72-3.712, 10.08-5.056c 3.968-1.792, 8.064-3.072, 12.448-4.00C 250.464,128.352, 256.00,128.00, 256.00,128.00c 6.208,0.00, 12.128,1.152, 17.824,2.816 c 1.152,0.352, 2.272,0.672, 3.424,1.088c 5.60,1.984, 10.848,4.544, 15.584,7.904c 0.096,0.064, 0.192,0.16, 0.32,0.256 C 298.112,143.616, 302.464,147.968, 306.24,152.768c 0.16,0.256, 0.384,0.448, 0.576,0.672c 3.808,5.024, 6.88,10.592, 9.088,16.64 C 318.40,176.928, 320.00,184.288, 320.00,192.00c0.00,31.008, 32.00,32.00, 32.00,32.00l 1.472,1.472C 358.176,224.608, 363.04,224.00, 368.00,224.00C 412.192,224.00, 448.00,259.808, 448.00,304.00 C 448.00,342.688, 420.512,374.976, 384.00,382.368z" ></path></svg>